<svg width="154" height="20" viewBox="0 0 154 20" fill="none" xmlns="http://www.w3.org/2000/svg">
<path d="M8.775 0.0459994C10.773 0.0459994 12.519 0.441999 14.013 1.234C15.507 2.026 16.659 3.142 17.469 4.582C18.297 6.004 18.711 7.651 18.711 9.523C18.711 11.377 18.297 13.024 17.469 14.464C16.659 15.904 15.498 17.02 13.986 17.812C12.492 18.604 10.755 19 8.775 19H1.674V0.0459994H8.775ZM8.478 15.004C10.224 15.004 11.583 14.527 12.555 13.573C13.527 12.619 14.013 11.269 14.013 9.523C14.013 7.777 13.527 6.418 12.555 5.446C11.583 4.474 10.224 3.988 8.478 3.988H6.291V15.004H8.478ZM37.7072 0.0459994V19H33.0902V11.197H25.9082V19H21.2912V0.0459994H25.9082V7.471H33.0902V0.0459994H37.7072ZM57.4562 0.0459994V19H52.8392V11.197H45.6572V19H41.0402V0.0459994H45.6572V7.471H52.8392V0.0459994H57.4562ZM83.4669 19H78.8499L71.1279 7.309V19H66.5109V0.0459994H71.1279L78.8499 11.791V0.0459994H83.4669V19ZM101.016 11.224C101.016 11.656 100.989 12.106 100.935 12.574H90.4856C90.5576 13.51 90.8546 14.23 91.3766 14.734C91.9166 15.22 92.5736 15.463 93.3476 15.463C94.4996 15.463 95.3006 14.977 95.7506 14.005H100.665C100.413 14.995 99.9536 15.886 99.2876 16.678C98.6396 17.47 97.8206 18.091 96.8306 18.541C95.8406 18.991 94.7336 19.216 93.5096 19.216C92.0336 19.216 90.7196 18.901 89.5676 18.271C88.4156 17.641 87.5156 16.741 86.8676 15.571C86.2196 14.401 85.8956 13.033 85.8956 11.467C85.8956 9.901 86.2106 8.533 86.8406 7.363C87.4886 6.193 88.3886 5.293 89.5406 4.663C90.6926 4.033 92.0156 3.718 93.5096 3.718C94.9676 3.718 96.2636 4.024 97.3976 4.636C98.5316 5.248 99.4136 6.121 100.044 7.255C100.692 8.389 101.016 9.712 101.016 11.224ZM96.2906 10.009C96.2906 9.217 96.0206 8.587 95.4806 8.119C94.9406 7.651 94.2656 7.417 93.4556 7.417C92.6816 7.417 92.0246 7.642 91.4846 8.092C90.9626 8.542 90.6386 9.181 90.5126 10.009H96.2906ZM125.078 3.934L121.001 19H115.898L113.522 9.226L111.065 19H105.989L101.885 3.934H106.502L108.635 14.707L111.173 3.934H116.06L118.625 14.653L120.731 3.934H125.078ZM132.968 19.216C131.654 19.216 130.484 18.991 129.458 18.541C128.432 18.091 127.622 17.479 127.028 16.705C126.434 15.913 126.101 15.031 126.029 14.059H130.592C130.646 14.581 130.889 15.004 131.321 15.328C131.753 15.652 132.284 15.814 132.914 15.814C133.49 15.814 133.931 15.706 134.237 15.49C134.561 15.256 134.723 14.959 134.723 14.599C134.723 14.167 134.498 13.852 134.048 13.654C133.598 13.438 132.869 13.204 131.861 12.952C130.781 12.7 129.881 12.439 129.161 12.169C128.441 11.881 127.82 11.44 127.298 10.846C126.776 10.234 126.515 9.415 126.515 8.389C126.515 7.525 126.749 6.742 127.217 6.04C127.703 5.32 128.405 4.753 129.323 4.339C130.259 3.925 131.366 3.718 132.644 3.718C134.534 3.718 136.019 4.186 137.099 5.122C138.197 6.058 138.827 7.3 138.989 8.848H134.723C134.651 8.326 134.417 7.912 134.021 7.606C133.643 7.3 133.139 7.147 132.509 7.147C131.969 7.147 131.555 7.255 131.267 7.471C130.979 7.669 130.835 7.948 130.835 8.308C130.835 8.74 131.06 9.064 131.51 9.28C131.978 9.496 132.698 9.712 133.67 9.928C134.786 10.216 135.695 10.504 136.397 10.792C137.099 11.062 137.711 11.512 138.233 12.142C138.773 12.754 139.052 13.582 139.07 14.626C139.07 15.508 138.818 16.3 138.314 17.002C137.828 17.686 137.117 18.226 136.181 18.622C135.263 19.018 134.192 19.216 132.968 19.216Z" fill="white"/>
<circle cx="150.5" cy="15.5" r="3.5" fill="#F97316"/>
</svg>
